<svg xmlns="http://www.w3.org/2000/svg" version="1.1" xmlns:xlink="http://www.w3.org/1999/xlink" xmlns:svgjs="http://svgjs.dev/svgjs" width="2000" height="863" viewBox="0 0 2000 863"><g transform="matrix(1,0,0,1,-1.2121212121213603,-1.1977170912048223)"><svg viewBox="0 0 396 171" data-background-color="#ffffff" preserveAspectRatio="xMidYMid meet" height="863" width="2000" xmlns="http://www.w3.org/2000/svg" xmlns:xlink="http://www.w3.org/1999/xlink"><g id="tight-bounds" transform="matrix(1,0,0,1,0.24000000000003752,0.2373228535295766)"><svg viewBox="0 0 395.5199999999999 170.52535429294085" height="170.52535429294085" width="395.5199999999999"><g><svg viewBox="0 0 395.5199999999999 170.52535429294085" height="170.52535429294085" width="395.5199999999999"><g transform="matrix(1,0,0,1,0,105.39151009096167)"><svg viewBox="0 0 395.5199999999999 65.13384420197919" height="65.13384420197919" width="395.5199999999999"><g id="textblocktransform"><svg viewBox="0 0 395.5199999999999 65.13384420197919" height="65.13384420197919" width="395.5199999999999" id="textblock"><g><svg viewBox="0 0 395.5199999999999 65.13384420197919" height="65.13384420197919" width="395.5199999999999"><g transform="matrix(1,0,0,1,0,0)"><svg width="395.5199999999999" viewBox="1.1 -32.1 197.03 32.45" height="65.13384420197919" data-palette-color="#8bc53f"><path d="M23.15-32.05L23.45-31.65 23.15-28.55 17.55-28.85 14.3-28.85 14.15-10 14.3 0 10.25 0 10.55-9.65 10.3-28.85 7.05-28.85 1.35-28.55 1.1-28.95 1.4-32.05 23.15-32.05ZM40.45-10.05Q43.5-5.4 47.2-0.9L47.2-0.9 47.15-0.4Q45.05 0.25 43.7 0.35L43.7 0.35 43.05-0.05Q39.25-5.8 37.3-9.1L37.3-9.1 32.6-9.05 32.6-7.8 32.7 0 29 0 29.15-7.5 29-24.9 37.5-24.95Q41.45-24.95 43.57-23.1 45.7-21.25 45.7-17.75L45.7-17.75Q45.7-15.2 44.32-13.2 42.95-11.2 40.45-10.05L40.45-10.05ZM32.7-21.9L32.65-12.15 37.35-12Q41.8-13.25 41.8-17.45L41.8-17.45Q41.8-19.65 40.5-20.75 39.2-21.85 36.55-21.95L36.55-21.95 32.7-21.9ZM64.45-24.9L73.2 0 69.45 0 68.84-2.7 67.55-6.4 61.59-6.45 56.3-6.4 54.95-2.9 54.25 0 50.55 0 60.15-24.9 64.45-24.9ZM61.9-9.4L66.5-9.45 62.34-21.25 62.05-21.25 57.5-9.45 61.9-9.4ZM89.14-25.1Q94.84-25.1 97.87-22.05 100.89-19 100.89-13.3L100.89-13.3Q100.89-6.75 97.59-3.25 94.29 0.25 88.14 0.25L88.14 0.25Q86.39 0.25 83.97 0.18 81.54 0.1 79.39 0L79.39 0 79.54-7.5 79.39-24.9 89.14-25.1ZM88.74-2.8Q92.74-2.8 94.92-5.23 97.09-7.65 97.09-12.55L97.09-12.55Q97.09-17.35 95.04-19.65 92.99-21.95 88.84-21.95L88.84-21.95Q86.39-21.95 83.09-21.75L83.09-21.75 82.99-7.8 83.04-3.1Q84.49-3 86.09-2.9 87.69-2.8 88.74-2.8L88.74-2.8ZM116.24-3L122.89-3.2 123.19-2.9 122.84 0 107.69 0 107.84-7.5 107.69-24.9 122.94-24.9 123.19-24.6 122.89-21.7 116.59-21.9 111.39-21.85 111.34-14.3 116.29-14.25 120.64-14.4 120.89-14.05 120.59-11.1 115.99-11.25 111.34-11.2 111.29-7.8 111.34-3.05 116.24-3ZM149.24-32.1L149.24-29.1 131.29-3.25 144.59-3.25 149.34-3.6 149.54-3.3 149.19 0.1 143.39 0 129.34 0 126.49 0.15 126.49-2.8 144.49-28.75 132.14-28.75 127.34-28.4 127.09-28.7 127.39-32.1 146.79-32.05 149.24-32.1ZM166.49-24.9L175.24 0 171.49 0 170.89-2.7 169.59-6.4 163.64-6.45 158.34-6.4 156.99-2.9 156.28 0 152.59 0 162.19-24.9 166.49-24.9ZM163.94-9.4L168.53-9.45 164.39-21.25 164.09-21.25 159.53-9.45 163.94-9.4ZM189.93-24.95Q193.88-24.95 196.01-23.05 198.13-21.15 198.13-17.55L198.13-17.55Q198.13-13.35 195.46-10.98 192.78-8.6 188.08-8.6L188.08-8.6 185.03-8.6 185.03-7.8 185.13 0 181.43 0 181.58-7.5 181.43-24.9 189.93-24.95ZM189.28-11.5Q194.23-12.35 194.23-17.25L194.23-17.25Q194.23-19.6 192.91-20.75 191.58-21.9 188.93-22L188.93-22 185.13-21.95 185.08-11.6 189.28-11.5Z" opacity="1" transform="matrix(1,0,0,1,0,0)" fill="#000000" class="wordmark-text-0" data-fill-palette-color="primary" id="text-0"></path></svg></g></svg></g></svg></g></svg></g><g transform="matrix(1,0,0,1,112.37436876534596,0)"><svg viewBox="0 0 170.771262469308 90.01497268713524" height="90.01497268713524" width="170.771262469308"><g><svg xmlns="http://www.w3.org/2000/svg" xmlns:xlink="http://www.w3.org/1999/xlink" version="1.1" x="0" y="0" viewBox="11.8 27.5 66.4 35" enable-background="new 0 0 90 90" xml:space="preserve" height="90.01497268713524" width="170.771262469308" class="icon-icon-0" data-fill-palette-color="accent" id="icon-0"><g fill="#5d9943" data-fill-palette-color="accent"><polygon points="37,27.5 21.5,43 11.8,33.4 11.9,62.1 40.7,62.2 31.1,52.6 46.6,37.2  " fill="#000000" data-fill-palette-color="accent"></polygon><polygon points="53,62.5 68.6,46.9 78.2,56.5 78.1,27.7 49.3,27.7 59,37.3 43.4,52.8  " fill="#000000" data-fill-palette-color="accent"></polygon></g></svg></g></svg></g><g></g></svg></g><defs></defs></svg><rect width="395.5199999999999" height="170.52535429294085" fill="none" stroke="none" visibility="hidden"></rect></g></svg></g></svg>